<?xml version="1.0" standalone="no"?>
<!DOCTYPE svg PUBLIC "-//W3C//DTD SVG 20010904//EN"
 "http://www.w3.org/TR/2001/REC-SVG-20010904/DTD/svg10.dtd">
<svg version="1.0" xmlns="http://www.w3.org/2000/svg"
 width="800.000000pt" height="800.000000pt" viewBox="0 0 800.000000 800.000000"
 preserveAspectRatio="xMidYMid meet">
<metadata>
Created by potrace 1.14, written by Peter Selinger 2001-2017
</metadata>
<g transform="translate(0.000000,800.000000) scale(0.100000,-0.100000)"
fill="#000000" stroke="none">
<path d="M0 4000 l0 -4000 4000 0 4000 0 0 4000 0 4000 -4000 0 -4000 0 0
-4000z m956 999 c1 -33 -2 -36 -28 -36 -19 0 -24 3 -16 9 19 11 -8 11 -30 -1
-13 -7 -25 -4 -42 10 -21 16 -23 20 -10 29 8 5 20 10 25 10 6 0 3 -4 -5 -10
-8 -5 -12 -12 -8 -15 3 -3 12 1 21 9 19 19 31 8 14 -13 -10 -14 -10 -14 4 -4
9 7 19 10 22 6 4 -3 7 -2 7 3 0 6 -5 15 -12 22 -8 8 -9 12 -1 12 6 0 14 -6 16
-12 3 -8 6 -5 6 5 1 12 7 17 19 15 12 -2 17 -13 18 -39z m113 19 c11 -23 11
-23 7 2 -5 24 -4 24 9 6 8 -11 15 -14 15 -8 0 7 5 12 12 12 6 0 8 -3 5 -6 -3
-4 0 -16 8 -28 8 -11 15 -25 15 -30 0 -6 -7 0 -16 12 -8 12 -21 22 -27 21 -9
0 -9 -2 1 -6 6 -2 12 -12 11 -21 0 -11 -2 -12 -6 -4 -2 6 -13 12 -24 12 -11 0
-19 7 -19 18 0 14 -2 14 -9 3 -7 -10 -9 -7 -8 12 2 33 10 34 26 5z m847 -19
c1 -33 -2 -36 -28 -36 -19 0 -24 3 -16 9 10 6 9 8 -3 8 -9 0 -19 -3 -23 -7
-10 -11 -116 -11 -122 -1 -10 16 7 30 22 17 12 -10 13 -9 8 5 -7 17 11 23 21
6 8 -13 25 -13 25 1 0 5 -6 7 -12 3 -7 -4 -10 -4 -6 0 3 4 8 7 10 5 2 -1 14 3
27 10 14 8 21 9 17 2 -4 -6 -2 -11 4 -11 6 0 9 -4 6 -8 -3 -5 1 -9 9 -9 18 0
19 9 3 25 -8 8 -9 12 -1 12 6 0 14 -6 16 -12 3 -8 6 -5 6 5 1 12 7 17 19 15
12 -2 17 -13 18 -39z m113 19 c11 -23 11 -23 7 2 -5 23 -4 24 8 7 10 -13 15
-15 19 -5 4 11 8 11 26 0 12 -7 26 -10 31 -7 5 3 11 2 14 -3 2 -4 -6 -9 -20
-10 -13 -1 -24 3 -24 8 0 6 -5 10 -10 10 -7 0 -6 -6 1 -18 13 -20 69 -24 69
-5 0 7 5 13 11 13 6 0 8 -7 5 -16 -5 -13 -3 -14 6 -6 9 7 18 6 32 -4 10 -7 23
-11 28 -8 4 3 11 -2 14 -10 3 -9 10 -13 15 -10 5 3 9 1 9 -5 0 -6 7 -8 15 -5
8 4 15 1 15 -5 0 -6 6 -11 14 -11 20 0 29 -17 15 -26 -7 -4 -9 -3 -6 3 8 13
-26 13 -35 -1 -4 -6 -10 -7 -14 -3 -4 3 -2 12 4 20 8 10 7 13 -8 14 -15 1 -17
-2 -11 -20 5 -12 16 -21 25 -21 9 1 16 -2 16 -7 0 -5 -11 -8 -24 -7 -14 1 -23
5 -20 9 2 4 0 11 -6 14 -6 4 -10 14 -9 23 3 34 -2 38 -48 37 -27 0 -51 4 -55
10 -5 6 -8 5 -8 -4 0 -11 -3 -11 -15 -1 -12 10 -15 10 -15 -1 0 -8 -7 -4 -16
9 -8 12 -21 22 -27 21 -9 0 -9 -2 1 -6 6 -2 12 -12 11 -21 0 -11 -2 -12 -6 -4
-2 6 -13 12 -24 12 -11 0 -19 7 -19 18 0 14 -2 14 -9 3 -7 -10 -9 -7 -8 12 2
33 10 34 26 5z m-886 -11 c-4 -8 -1 -7 9 1 11 9 18 10 23 2 3 -5 1 -10 -4 -10
-6 0 -11 -5 -11 -11 0 -5 4 -7 10 -4 6 4 7 -1 3 -11 -6 -15 -8 -15 -25 6 -19
24 -25 55 -8 45 6 -4 7 -12 3 -18z m-305 -36 c15 -9 14 -10 -5 -8 -12 0 -20 4
-17 8 2 4 -6 9 -19 13 -18 5 -19 8 -7 16 10 6 17 5 23 -5 4 -8 15 -19 25 -24z
m370 28 c-2 -6 3 -14 11 -17 9 -3 11 0 6 8 -5 9 -4 11 4 6 6 -4 9 -12 6 -17
-4 -5 -1 -9 4 -9 6 0 11 5 11 10 0 6 11 3 25 -6 14 -9 25 -13 25 -9 0 5 9 0
20 -10 11 -10 17 -23 13 -29 -4 -6 1 -5 11 3 15 12 17 12 14 0 -2 -8 -10 -17
-18 -20 -9 -4 -3 -8 17 -11 26 -4 30 -2 22 9 -7 8 -8 13 -1 13 8 0 22 -22 22
-33 0 -1 -27 -3 -60 -3 -33 0 -60 4 -60 9 0 5 8 6 17 3 10 -4 14 -4 11 0 -4 4
-3 16 3 27 9 15 8 18 -2 12 -9 -6 -11 -3 -6 9 4 10 3 15 -4 11 -5 -4 -7 -15
-4 -26 4 -10 2 -19 -3 -19 -6 0 -9 11 -7 25 2 26 2 27 -68 28 -27 1 -36 5 -32
15 3 7 5 18 5 23 0 5 5 9 10 9 6 0 9 -5 8 -11z m-423 -23 c17 -12 14 -13 -28
-12 -26 0 -47 2 -47 4 0 3 41 20 51 21 3 1 14 -5 24 -13z m275 0 c0 -3 -4 -8
-10 -11 -5 -3 -10 -1 -10 4 0 6 5 11 10 11 6 0 10 -2 10 -4z m650 -8 c0 -4 -4
-8 -9 -8 -6 0 -12 4 -15 8 -3 5 1 9 9 9 8 0 15 -4 15 -9z m310 8 c0 -3 -4 -8
-10 -11 -5 -3 -10 -1 -10 4 0 6 5 11 10 11 6 0 10 -2 10 -4z m-1310 -31 c4 2
7 -10 6 -29 -1 -26 -5 -32 -18 -28 -10 2 -18 9 -19 16 0 6 -3 3 -7 -6 -6 -16
-9 -16 -32 2 l-25 19 35 -1 c19 -1 38 -6 42 -12 5 -7 8 -5 8 5 0 24 -10 29
-34 18 -17 -8 -16 -6 4 10 14 11 27 16 28 10 2 -5 7 -7 12 -4z m967 -7 c1 -10
-3 -18 -9 -18 -6 0 -8 3 -5 7 4 3 2 11 -3 18 -7 8 -6 12 3 12 7 0 14 -9 14
-19z m-33 -21 c-1 -22 1 -25 12 -16 8 6 14 9 14 5 0 -3 0 -9 0 -13 0 -13 -49
-10 -54 4 -3 7 0 13 6 13 6 0 8 3 5 6 -11 12 -55 -25 -59 -48 -2 -12 -14 -28
-28 -35 -22 -11 -23 -13 -4 -13 26 0 44 18 44 46 0 12 7 25 16 28 12 5 15 2 9
-11 -4 -10 -8 -24 -8 -30 0 -7 -4 -13 -9 -13 -4 0 -8 -5 -8 -11 0 -5 5 -7 11
-3 7 4 10 1 7 -6 -2 -8 -10 -16 -18 -18 -7 -3 -10 0 -6 7 4 6 2 11 -3 11 -6 0
-11 -4 -11 -9 0 -14 -35 -7 -53 10 -18 18 -13 31 9 22 17 -6 44 14 44 34 0 11
-6 8 -21 -8 -20 -23 -20 -22 1 9 12 18 26 30 31 26 5 -3 12 2 15 10 3 9 10 13
15 10 5 -3 12 2 15 11 10 24 29 12 28 -18z m690 -27 c5 -1 13 4 17 12 6 9 9 5
9 -12 0 -26 16 -50 34 -50 5 0 2 8 -7 18 -10 10 -17 23 -17 28 0 5 5 1 11 -9
6 -9 15 -15 21 -11 6 4 8 -1 6 -12 -5 -27 -40 -23 -55 6 -11 22 -13 23 -13 5
0 -43 38 -58 74 -28 12 10 18 14 14 9 -4 -5 9 -25 29 -45 21 -20 38 -39 39
-43 1 -5 2 -13 3 -19 0 -5 6 -7 13 -3 6 4 8 3 5 -3 -3 -5 5 -22 19 -38 28 -33
20 -50 -25 -53 -25 -2 -31 2 -31 18 0 14 5 18 18 13 15 -6 15 -4 -2 15 -11 12
-14 22 -8 22 7 0 12 -4 12 -10 0 -5 5 -10 10 -10 7 0 7 6 1 18 -7 12 -19 18
-40 16 -17 -1 -31 2 -31 7 0 5 -5 9 -11 9 -5 0 -7 -5 -3 -11 4 -7 1 -10 -6 -7
-8 2 -16 10 -18 18 -3 7 0 10 7 6 6 -4 11 -2 11 3 0 6 -4 11 -8 11 -4 0 -8 9
-9 20 -1 11 2 20 8 20 5 0 9 -8 9 -18 0 -26 20 -42 50 -41 22 2 22 2 3 6 -26
5 -44 25 -46 52 -1 22 -12 27 -22 12 -6 -11 -45 -10 -45 1 0 4 -5 8 -11 8 -5
0 -7 -5 -3 -11 4 -7 1 -10 -6 -7 -8 2 -16 10 -18 18 -3 7 0 10 7 6 6 -4 11 -2
11 3 0 6 -5 11 -12 11 -6 0 -9 3 -5 6 3 4 -1 21 -10 38 -12 23 -13 28 -2 19 8
-6 18 -12 23 -13z m-1700 4 c12 -4 13 -11 6 -24 -5 -9 -6 -20 -3 -24 3 -3 1
-6 -5 -6 -7 0 -12 -5 -12 -11 0 -5 5 -7 11 -3 7 4 10 1 7 -6 -2 -8 -10 -16
-18 -18 -7 -3 -10 0 -6 7 4 6 2 11 -3 11 -6 0 -11 -4 -11 -8 0 -4 -9 -8 -20
-9 -11 -1 -20 2 -20 8 0 5 8 9 19 9 21 0 36 15 43 46 3 12 0 21 -6 21 -7 0
-12 -9 -12 -21 1 -11 -8 -25 -19 -30 -42 -23 -45 -26 -35 -51 7 -19 6 -24 -7
-27 -15 -3 -15 -4 -1 -19 15 -14 14 -16 -13 -16 -34 0 -41 32 -9 42 11 3 20
11 20 17 0 7 -4 7 -12 1 -7 -6 -22 -13 -33 -17 -16 -5 -15 -2 5 14 16 13 19
18 7 14 -10 -4 8 19 40 50 61 59 62 59 87 50z m791 -4 c3 -5 1 -10 -4 -10 -6
0 -11 5 -11 10 0 6 2 10 4 10 3 0 8 -4 11 -10z m5818 -27 c41 -44 57 -94 57
-181 0 -65 -26 -304 -45 -414 -7 -45 8 -32 34 28 31 71 99 140 152 154 77 21
140 -9 186 -87 50 -86 44 -273 -14 -386 -52 -104 -131 -164 -229 -174 -63 -7
-69 4 -18 32 126 68 213 318 158 455 -37 92 -134 79 -201 -26 -69 -107 -106
-291 -85 -419 6 -33 8 -62 6 -64 -11 -12 -62 41 -86 89 -24 47 -28 65 -28 144
0 50 14 182 32 300 27 176 32 241 32 393 1 122 5 183 12 183 5 0 22 -12 37
-27z m-5780 -19 c7 1 9 1 5 -1 -5 -3 -8 -11 -8 -19 0 -26 -16 -14 -17 14 -1
15 1 22 3 15 3 -7 11 -11 17 -9z m4359 -30 c46 -51 50 -146 18 -414 -28 -235
-27 -240 15 -153 45 93 121 176 182 199 41 16 50 16 86 3 84 -29 100 -117 61
-339 -9 -58 -18 -144 -18 -192 -1 -79 1 -89 24 -113 l25 -27 -57 4 c-68 5 -94
24 -109 80 -11 41 -9 62 22 246 23 138 24 191 3 220 -56 80 -202 -72 -248
-259 -10 -39 -16 -108 -16 -172 l0 -107 -30 0 c-51 0 -88 25 -96 66 -4 21 6
134 24 277 42 323 55 481 50 614 l-3 111 25 -13 c14 -7 33 -21 42 -31z m-4322
-3 c0 -4 -7 -8 -15 -8 -8 0 -15 6 -15 13 0 8 6 11 15 8 8 -4 15 -9 15 -13z
m-1019 -65 c5 3 9 -2 9 -10 0 -8 -4 -18 -10 -21 -5 -3 -7 -21 -5 -39 6 -32 5
-33 -34 -32 -38 0 -38 1 -22 22 9 12 18 21 21 19 3 -2 14 9 24 24 l20 26 -22
-19 c-26 -22 -41 -16 -17 7 8 9 15 22 16 29 0 10 2 10 6 0 2 -6 9 -10 14 -6z
m2101 -160 c6 4 8 2 4 -4 -3 -6 -2 -13 4 -17 16 -10 12 -25 -7 -26 -14 0 -13
-2 5 -9 12 -5 22 -12 22 -14 0 -3 -8 -2 -17 1 -15 6 -15 5 -1 -16 11 -15 15
-35 11 -56 -3 -19 0 -35 6 -39 14 -9 15 -103 1 -111 -6 -3 -7 -17 -4 -31 4
-15 2 -24 -6 -24 -6 0 -8 -5 -4 -12 4 -6 -1 -17 -11 -25 -11 -7 -13 -13 -7
-13 9 0 8 -7 -3 -23 -8 -13 -12 -27 -8 -30 3 -4 1 -7 -5 -7 -14 0 -16 26 -2
35 5 3 8 19 6 35 -2 17 1 30 5 30 5 0 9 -5 9 -12 0 -6 3 -8 7 -4 5 4 -1 14
-11 22 -12 8 -14 14 -7 14 8 0 11 6 7 15 -3 8 -1 15 4 15 5 0 7 7 3 16 -3 9
-8 11 -12 6 -3 -6 -6 30 -7 80 0 88 0 89 13 46 7 -23 13 -62 15 -85 1 -24 5
-43 9 -43 9 0 1 73 -13 119 -8 26 -7 35 3 42 11 6 9 12 -6 26 -15 13 -20 31
-21 67 0 27 2 44 4 37 2 -6 9 -8 14 -5z m-2191 -13 c-11 -4 -11 -7 0 -14 7 -4
11 -10 8 -13 -2 -3 -11 -1 -18 3 -15 10 -6 31 12 30 8 0 7 -3 -2 -6z m864 -23
c3 -5 11 -10 16 -10 6 0 8 4 5 8 -3 5 1 9 8 9 17 0 10 -23 -9 -30 -8 -3 -11
-15 -8 -31 3 -15 1 -26 -6 -26 -21 0 -10 -35 19 -60 17 -13 30 -28 30 -33 0
-5 -8 -3 -17 4 -11 10 -14 10 -9 2 4 -7 2 -13 -3 -13 -6 0 -12 5 -12 10 -1 6
-2 16 -3 22 0 7 -10 14 -21 15 -16 1 -16 1 -2 -3 9 -3 15 -10 11 -15 -3 -5
-10 -6 -16 -3 -6 4 -5 -3 2 -16 7 -12 8 -20 2 -16 -5 3 -12 -1 -16 -9 -8 -21
-26 -19 -26 3 0 14 2 15 10 2 5 -8 10 -12 10 -8 0 3 3 14 6 22 4 11 2 15 -7
13 -8 -2 -11 -2 -6 0 4 3 7 9 7 14 0 6 -4 7 -10 4 -6 -4 -10 12 -9 42 0 26 3
42 6 36 6 -16 33 -17 33 -2 0 5 5 7 10 4 6 -3 10 -2 10 2 0 5 -10 14 -21 22
-18 11 -23 11 -30 -1 -7 -11 -9 -10 -9 1 0 14 29 49 42 50 4 1 10 -3 13 -9z
m250 2 c10 -6 11 -18 6 -39 -1 -5 -7 3 -12 16 -7 19 -12 22 -21 13 -14 -14
-45 -16 -52 -3 -4 5 4 7 16 4 19 -4 20 -3 8 6 -12 9 -9 11 15 11 17 0 35 -4
40 -8z m243 -2 c0 -3 1 -7 2 -10 7 -19 5 -50 -4 -47 -6 2 -9 12 -8 22 3 14 1
16 -10 9 -21 -16 -56 -11 -73 11 -9 11 -13 14 -9 6 4 -9 2 -12 -7 -9 -8 3 -19
-6 -25 -21 -11 -25 -12 -25 -9 9 2 19 4 35 4 36 4 4 139 -2 139 -6z m-1364
-35 c11 15 12 14 12 -4 0 -11 -5 -19 -11 -18 -10 2 -8 -34 3 -43 7 -5 7 -18 3
-65 -1 -17 -3 -18 -11 -5 -7 11 -10 11 -10 2 0 -7 -4 -10 -10 -7 -5 3 -10 1
-10 -4 0 -6 10 -11 23 -11 17 0 22 -6 22 -24 0 -13 -3 -22 -7 -19 -5 2 -8 0
-8 -6 0 -5 6 -12 13 -14 7 -4 6 -6 -4 -6 -9 -1 -23 7 -30 16 -8 9 -9 14 -3 10
12 -7 29 21 19 31 -3 3 -5 0 -5 -6 0 -7 -5 -12 -11 -12 -5 0 -8 4 -4 9 3 5 1
12 -4 16 -12 7 -11 46 2 62 5 7 5 18 1 25 -6 10 -3 9 9 -1 20 -16 21 -5 3 28
-7 12 -10 35 -7 50 5 25 6 25 9 3 3 -21 5 -22 16 -7z m1124 -15 c7 0 9 -7 5
-17 -4 -10 -2 -14 4 -10 6 4 14 0 17 -9 5 -12 2 -15 -10 -10 -13 5 -15 2 -11
-14 3 -11 1 -20 -4 -20 -5 0 -9 -7 -9 -16 0 -14 -2 -15 -17 -3 -14 12 -16 12
-8 0 6 -11 3 -13 -13 -9 -12 4 -25 1 -29 -4 -3 -7 -1 -8 5 -4 7 4 12 2 12 -3
0 -13 -27 -14 -35 -2 -3 5 4 16 16 25 12 8 18 19 15 25 -4 5 -2 12 3 15 11 7
9 45 -3 64 -4 7 -3 12 3 12 14 0 24 -37 17 -66 -4 -14 -2 -24 4 -24 5 0 10 11
10 25 0 14 6 25 13 25 6 0 4 5 -5 11 -10 5 -18 18 -18 27 1 16 2 16 14 0 7
-10 18 -18 24 -18z m67 -47 c1 -14 -4 -23 -13 -23 -8 0 -12 6 -9 14 3 7 0 19
-6 26 -9 9 -8 11 7 8 12 -2 20 -12 21 -25z m2312 -31 c14 -34 14 -43 0 -99 -9
-34 -59 -151 -110 -260 -52 -109 -100 -214 -106 -235 -13 -40 -26 -48 -76 -48
l-33 0 -15 88 c-9 48 -24 141 -33 207 -9 66 -20 123 -24 128 -3 4 -50 -86
-104 -200 -54 -115 -103 -211 -110 -215 -16 -11 -64 -10 -71 1 -3 6 -19 99
-35 208 -36 242 -53 324 -79 392 l-19 52 33 16 c69 33 115 -9 134 -121 6 -33
16 -133 22 -221 6 -88 15 -168 19 -179 7 -19 76 138 139 317 33 95 37 127 20
159 -14 25 3 45 46 54 44 8 81 -25 100 -89 12 -44 45 -357 45 -433 0 -13 3
-24 8 -24 9 0 113 254 145 355 14 44 31 108 37 142 12 57 14 62 32 52 11 -6
27 -27 35 -47z m251 -23 c16 -31 22 -60 22 -106 0 -35 3 -63 8 -63 4 0 20 25
36 55 39 75 96 137 146 160 38 17 45 18 83 4 50 -17 77 -58 86 -132 l7 -52 27
46 c39 66 117 136 159 144 47 9 103 -15 122 -54 22 -42 20 -160 -5 -322 -25
-165 -22 -238 12 -275 l24 -26 -57 4 c-106 8 -129 58 -103 227 38 250 40 281
24 309 -24 44 -69 42 -117 -6 -83 -83 -132 -238 -132 -416 l0 -106 -34 0 c-22
0 -45 9 -63 24 -25 22 -28 30 -26 83 1 32 11 114 22 183 23 138 27 221 11 251
-17 32 -64 24 -110 -17 -89 -81 -147 -264 -136 -438 l5 -88 -47 5 c-56 6 -82
33 -82 85 0 20 9 104 21 187 16 113 20 182 17 282 l-5 133 31 -19 c17 -10 41
-38 54 -62z m1321 36 c116 -60 80 -255 -47 -255 -40 0 -42 5 -21 48 24 46 25
129 2 154 -39 43 -124 9 -174 -69 -45 -72 -63 -144 -63 -258 -1 -85 3 -106 22
-142 26 -49 47 -63 97 -63 47 0 104 30 143 75 28 31 35 34 53 25 20 -11 20
-13 3 -38 -53 -84 -135 -132 -226 -132 -126 0 -201 79 -215 226 -19 200 92
397 246 441 56 16 138 10 180 -12z m1428 -1 c26 -35 26 -67 3 -239 -22 -170
-25 -363 -5 -409 8 -17 6 -17 -23 -2 -66 34 -96 105 -90 213 2 34 1 63 -2 62
-3 0 -22 -36 -43 -79 -68 -143 -160 -210 -240 -176 -75 31 -96 155 -61 362 10
57 15 131 12 189 -3 93 -3 95 20 95 12 0 38 -7 57 -15 61 -25 68 -81 34 -260
-26 -133 -30 -235 -10 -258 23 -29 66 -21 106 20 79 81 136 255 138 422 l2
103 44 -5 c28 -3 50 -12 58 -23z m-4270 -6 c-3 -8 -6 -5 -6 6 -1 11 2 17 5 13
3 -3 4 -12 1 -19z m-1034 -23 c7 -17 -8 -29 -24 -20 -18 12 -61 -4 -55 -20 8
-21 -18 -19 -35 2 -10 11 -10 14 -1 9 7 -4 12 -2 12 4 0 6 4 8 10 5 5 -3 15 3
22 15 15 23 63 27 71 5z m216 -42 c14 -11 14 -12 -1 -13 -19 0 -42 33 -30 44
3 4 9 1 11 -6 2 -7 11 -18 20 -25z m33 22 c4 -5 8 -23 8 -40 0 -23 -3 -27 -10
-15 -8 13 -10 12 -10 -2 0 -10 5 -18 12 -18 6 0 9 -2 6 -5 -9 -10 -57 6 -55
18 1 6 -3 11 -10 12 -18 0 -28 15 -10 15 8 0 22 -6 29 -14 12 -11 16 -9 25 11
11 22 10 26 -7 30 -11 3 -17 9 -14 14 6 11 26 7 36 -6z m-432 -5 c0 -5 -5 -10
-11 -10 -5 0 -7 5 -4 10 3 6 8 10 11 10 2 0 4 -4 4 -10z m198 -26 c3 -16 1
-17 -7 -4 -9 13 -11 13 -11 1 0 -12 -3 -12 -12 -3 -7 7 -17 12 -22 12 -6 0 -5
-4 2 -8 7 -5 10 -16 6 -25 -7 -19 -20 -22 -29 -7 -3 6 -1 10 6 10 7 0 10 3 6
6 -3 3 -11 3 -16 -1 -8 -4 -6 -13 4 -28 26 -36 17 -43 -10 -7 -27 37 -30 45
-15 35 9 -6 14 8 11 28 -1 5 3 6 9 2 5 -3 10 -2 10 3 0 5 15 9 33 7 22 -2 33
-8 35 -21z m162 18 c0 -4 -9 -13 -20 -20 -23 -14 -26 -8 -7 13 13 16 27 19 27
7z m-542 -67 c0 -27 -25 -34 -46 -13 -21 21 -13 32 10 12 18 -16 20 -16 15 -2
-3 9 -3 19 0 22 13 12 21 5 21 -19z m-163 -3 c4 -10 0 -12 -11 -8 -15 6 -15 4
-3 -11 7 -10 9 -15 4 -10 -11 9 -46 -23 -38 -36 3 -6 1 -7 -5 -3 -7 4 -12 1
-12 -8 0 -9 5 -16 10 -16 6 0 10 -5 10 -11 0 -5 -4 -7 -10 -4 -5 3 -10 2 -10
-3 0 -5 10 -14 23 -19 21 -11 21 -11 2 -18 -11 -3 -27 -10 -35 -14 -11 -6 -15
-2 -15 15 0 12 3 20 8 17 4 -2 7 3 7 11 0 9 -4 16 -9 16 -5 0 -9 20 -8 44 2
34 5 42 17 38 12 -4 12 -1 -2 14 -17 19 -16 20 27 20 29 0 46 -5 50 -14z m52
10 c8 -5 9 -13 3 -22 -8 -13 -10 -12 -10 3 0 9 -4 17 -10 17 -5 0 -7 -7 -4
-15 4 -9 0 -15 -8 -15 -7 0 -14 9 -15 20 -2 21 21 27 44 12z m55 -29 c8 -10
20 -37 26 -60 9 -37 8 -43 -7 -44 -13 0 -14 -1 -1 -7 18 -9 22 -52 5 -52 -8 0
-15 -3 -18 -7 -2 -5 -2 -3 -1 4 2 7 -1 15 -7 19 -6 3 -8 12 -6 18 3 7 -1 13
-9 13 -8 0 -14 -4 -14 -9 0 -4 -5 -8 -11 -8 -8 0 -8 5 1 15 7 8 19 15 26 15 8
0 14 5 14 11 0 5 5 7 11 3 7 -4 10 -1 7 6 -6 20 -28 24 -28 6 0 -9 -4 -16 -10
-16 -14 0 -13 7 6 35 18 28 13 55 -11 55 -8 0 -15 5 -15 10 0 16 26 12 42 -7z
m353 -45 c-3 -15 -1 -28 5 -28 12 0 14 -57 1 -64 -4 -3 -7 7 -5 22 1 14 -2 32
-8 39 -6 7 -8 24 -6 38 3 14 1 28 -3 31 -5 3 -9 11 -9 17 0 7 7 3 15 -7 9 -11
13 -31 10 -48z m298 34 c-2 -13 2 -20 10 -18 6 1 9 1 5 -1 -5 -3 -8 -19 -8
-36 0 -38 14 -65 24 -48 4 6 2 11 -4 11 -16 0 -8 53 8 56 7 1 8 0 3 -2 -14 -8
0 -44 17 -44 12 0 9 -7 -11 -28 -20 -21 -24 -31 -16 -42 9 -13 10 -12 5 3 -3
9 -1 17 5 17 7 0 9 -10 5 -24 -4 -15 -1 -26 7 -29 9 -4 9 -6 0 -6 -6 -1 -19 9
-28 22 -17 22 -17 22 -11 0 4 -12 2 -24 -3 -27 -6 -4 -8 13 -5 44 3 34 1 50
-7 50 -7 0 -9 11 -5 35 4 20 4 41 -1 48 -13 22 -14 49 -1 44 7 -2 12 -14 11
-25z m-1428 8 c19 -8 19 -9 -2 -9 -12 -1 -25 4 -28 9 -7 12 2 12 30 0z m761
-21 c3 -6 1 -16 -6 -22 -10 -9 -11 -9 -6 0 3 6 -2 16 -11 22 -16 9 -16 10 -1
11 9 0 20 -5 24 -11z m64 -33 c0 -27 -10 -14 -16 20 -3 22 -2 25 6 14 5 -8 10
-24 10 -34z m-812 16 c3 -9 -2 -13 -14 -10 -9 1 -19 9 -22 16 -3 9 2 13 14 10
9 -1 19 -9 22 -16z m1142 -1 c0 -6 -4 -12 -8 -15 -5 -3 -9 1 -9 9 0 8 4 15 9
15 4 0 8 -4 8 -9z m394 -17 c15 -14 16 -14 16 2 0 10 3 15 6 11 4 -3 3 -19 -1
-34 l-7 -28 -15 28 c-12 23 -19 28 -39 23 -14 -4 -24 -2 -24 4 0 16 47 12 64
-6z m59 9 c-7 -2 -13 -11 -13 -19 0 -8 6 -14 13 -15 6 0 3 -4 -8 -9 -14 -6
-15 -9 -5 -9 11 -1 16 -13 17 -42 2 -37 0 -39 -12 -23 -7 11 -9 21 -4 22 5 2
9 8 9 13 0 6 -5 7 -12 3 -6 -4 -8 -3 -4 4 3 5 1 12 -4 14 -17 5 0 68 19 67 10
0 11 -2 4 -6z m-1602 -20 c-11 -5 -11 -7 0 -15 12 -8 12 -9 0 -6 -22 6 -25 28
-4 27 12 0 14 -2 4 -6z m1522 -13 c-5 -20 -23 -28 -23 -10 0 6 -8 10 -17 11
-12 1 -10 4 7 9 37 12 39 12 33 -10z m-1513 -24 c0 -3 -4 -8 -10 -11 -5 -3
-10 -1 -10 4 0 6 5 11 10 11 6 0 10 -2 10 -4z m55 -26 c-3 -5 0 -10 7 -10 9 0
9 -3 -2 -10 -22 -14 -33 -12 -26 6 4 12 2 15 -9 11 -8 -4 -16 -3 -19 1 -3 4 9
9 25 10 19 2 28 -2 24 -8z m2085 -11 c0 -10 -9 -21 -20 -24 -11 -3 -20 -11
-20 -17 0 -7 4 -7 13 -1 6 6 21 13 31 17 15 5 13 0 -8 -19 -15 -14 -33 -22
-39 -19 -7 4 -7 1 1 -7 11 -12 15 -11 26 4 7 9 17 17 21 17 5 0 0 -9 -10 -20
-10 -11 -15 -20 -11 -20 3 0 -1 -11 -10 -25 -9 -14 -21 -25 -28 -25 -6 0 -6 4
3 9 9 6 10 11 2 15 -6 4 -9 12 -5 17 3 5 11 6 17 2 7 -4 5 1 -3 11 -18 23 -19
59 -1 67 11 4 11 8 -2 20 -14 14 -12 16 14 16 21 0 29 -5 29 -18z m-2063 -41
c2 -18 0 -20 -7 -8 -12 18 -13 30 -2 30 4 0 9 -10 9 -22z m-23 -19 c-2 -4 3
-9 11 -13 22 -8 18 -26 -5 -26 -13 0 -18 5 -14 15 4 8 2 15 -4 15 -5 0 -13 7
-16 16 -3 8 -2 12 4 9 6 -3 10 0 10 7 0 10 3 9 9 -2 6 -8 8 -17 5 -21z m743
-1 c3 -18 1 -19 -13 -7 -10 8 -12 15 -5 17 6 2 8 9 4 15 -3 7 -2 9 2 4 5 -4
10 -17 12 -29z m803 -1 c0 -2 -7 -4 -15 -4 -8 0 -12 4 -9 9 3 4 0 8 -6 8 -6 0
-8 5 -5 10 6 9 35 -10 35 -23z m-483 -3 c1 -24 0 -25 -15 -10 -15 15 -15 18
-2 26 8 5 15 10 15 10 0 0 1 -12 2 -26z m-277 -32 c0 9 5 20 11 24 7 4 10 -3
9 -17 -1 -13 -1 -26 0 -29 7 -21 7 -61 -1 -66 -6 -4 -6 -11 2 -20 9 -11 7 -14
-9 -14 -12 0 -23 9 -27 20 -8 24 -21 26 -29 4 -3 -8 -2 -12 4 -9 6 3 10 1 10
-4 0 -6 -4 -11 -10 -11 -5 0 -6 -7 -3 -17 4 -11 3 -14 -5 -9 -13 8 -16 -6 -4
-18 11 -12 9 -89 -3 -101 -5 -6 -22 -11 -36 -13 -26 -2 -33 18 -16 45 4 6 4
18 1 27 -3 9 -1 16 5 16 9 0 9 5 1 21 -14 25 3 51 28 42 14 -4 15 -3 2 5 -8 6
-18 8 -22 6 -4 -3 -8 1 -8 9 0 9 9 14 22 13 20 -1 22 4 23 42 0 24 -3 46 -7
49 -5 2 -8 10 -8 16 0 7 7 4 14 -5 15 -21 28 -23 25 -5 -4 33 4 39 16 12 9
-18 14 -23 15 -13z m248 16 c7 -7 12 -22 12 -34 0 -19 -5 -23 -32 -22 -18 1
-28 3 -21 5 8 3 10 15 6 34 -6 31 12 40 35 17z m-1008 -32 c0 -3 -4 -8 -10
-11 -5 -3 -10 -1 -10 4 0 6 5 11 10 11 6 0 10 -2 10 -4z m60 -40 c0 -5 -8 -15
-17 -22 -17 -12 -16 -13 4 -11 12 0 20 4 19 7 -2 3 0 14 5 25 6 16 7 12 7 -15
-1 -55 0 -57 27 -55 14 2 25 -1 25 -7 0 -5 -10 -7 -22 -4 -23 6 -23 6 -2 -5
12 -6 27 -21 33 -33 11 -21 11 -21 5 2 -3 12 -1 22 4 22 5 0 9 -12 8 -27 -1
-24 3 -28 27 -27 15 1 27 -3 27 -8 0 -5 -10 -7 -22 -4 -23 6 -23 6 -2 -5 12
-6 27 -21 33 -33 11 -21 11 -21 5 2 -3 12 -1 22 4 22 5 0 9 -12 8 -27 -1 -24
3 -28 27 -27 15 1 27 -3 27 -8 0 -5 -10 -7 -22 -4 -23 6 -23 6 -2 -5 12 -6 27
-21 33 -33 11 -21 11 -21 5 2 -3 12 -1 22 4 22 5 0 9 -12 8 -27 -1 -24 3 -28
27 -27 15 1 27 -3 27 -8 0 -5 -10 -7 -22 -4 -23 6 -23 6 -2 -5 12 -6 27 -21
33 -33 11 -21 11 -21 5 2 -3 12 -1 22 4 22 5 0 9 -12 8 -27 -1 -24 3 -28 27
-27 15 1 27 -3 27 -8 0 -5 -10 -7 -22 -4 -23 6 -23 6 -2 -5 12 -6 27 -21 33
-33 11 -21 11 -21 5 2 -3 12 -1 22 4 22 5 0 9 -12 8 -27 -1 -24 3 -28 27 -27
15 1 27 -3 27 -8 0 -5 -10 -7 -22 -4 -23 6 -23 6 -2 -5 12 -6 27 -21 33 -33
11 -21 11 -21 5 2 -3 12 -1 22 4 22 5 0 9 -12 8 -27 -1 -24 3 -28 27 -27 15 1
27 -3 27 -8 0 -5 -10 -7 -22 -4 -23 6 -23 6 -2 -5 12 -6 27 -21 33 -33 11 -21
11 -21 5 2 -3 12 -1 22 4 22 5 0 9 -12 8 -27 -1 -24 3 -28 27 -27 15 1 27 -3
27 -8 0 -5 -10 -7 -22 -4 -23 6 -23 6 -2 -5 12 -6 27 -21 33 -33 11 -21 11
-21 5 2 -3 12 -1 22 4 22 5 0 9 -12 8 -27 -1 -24 3 -28 27 -27 15 1 27 -3 27
-8 0 -5 -10 -7 -22 -4 -23 6 -23 6 -2 -5 12 -6 27 -21 33 -33 11 -21 11 -21 5
2 -3 12 -1 22 4 22 5 0 9 -12 8 -27 -1 -24 3 -28 27 -27 15 1 27 -3 27 -8 0
-5 -10 -7 -22 -4 -23 6 -23 6 -2 -5 12 -6 27 -21 33 -33 11 -21 11 -21 5 2 -3
12 -1 22 4 22 5 0 9 -12 8 -27 -1 -24 3 -28 27 -27 15 1 27 -3 27 -8 0 -5 -10
-7 -22 -4 -23 6 -23 6 -2 -5 12 -6 27 -21 33 -33 11 -21 11 -21 5 2 -3 12 -1
22 4 22 5 0 9 -11 8 -25 0 -14 3 -24 8 -24 5 0 13 -5 17 -13 6 -9 9 -9 9 -1 0
7 12 10 30 8 19 -3 29 0 27 8 -1 7 4 11 11 10 6 -2 12 2 12 7 0 5 6 9 13 7 6
-1 11 4 10 11 -2 6 2 12 9 12 6 0 8 3 5 7 -9 9 23 44 34 37 5 -3 9 0 9 5 0 6
6 10 13 8 6 -1 11 4 10 11 -2 6 2 12 9 12 6 0 8 3 5 7 -9 9 23 44 34 37 5 -3
9 0 9 5 0 6 6 10 13 8 6 -1 11 4 10 11 -2 6 2 12 9 12 6 0 8 3 5 7 -9 9 23 44
34 37 5 -3 9 0 9 5 0 6 6 10 13 8 6 -1 11 4 10 11 -2 6 2 12 9 12 6 0 8 3 5 7
-9 9 23 44 34 37 5 -3 9 0 9 5 0 6 6 10 13 8 6 -1 11 4 10 11 -2 6 2 12 9 12
6 0 8 3 5 7 -9 9 23 44 34 37 5 -3 9 0 9 5 0 6 6 10 13 8 6 -1 11 4 10 11 -2
6 2 12 9 12 6 0 8 3 5 7 -9 9 23 44 34 37 5 -3 9 0 9 5 0 6 6 10 13 8 6 -1 11
4 10 11 -2 6 2 12 9 12 6 0 8 3 5 7 -9 9 23 44 34 37 5 -3 9 0 9 5 0 6 6 10
13 9 6 -2 11 3 9 10 -1 6 3 12 9 12 5 0 8 4 5 9 -3 4 3 16 14 26 12 11 17 22
11 29 -23 29 6 58 35 35 7 -6 18 -1 29 11 10 11 22 17 26 14 5 -3 9 0 9 5 0 6
6 10 13 9 6 -2 11 3 9 10 -1 6 3 12 10 12 6 0 8 3 5 7 -9 9 23 44 34 37 5 -3
9 0 9 5 0 6 6 10 13 9 6 -2 11 3 9 10 -1 6 2 12 8 12 6 0 9 6 8 13 -2 6 2 11
9 10 7 -2 10 12 8 41 l-3 43 36 -2 c52 -3 54 -4 47 -15 -5 -8 -12 -7 -23 2
-13 11 -14 11 -7 -1 6 -11 4 -13 -8 -8 -19 7 -40 -23 -31 -46 7 -19 -883 -910
-901 -903 -7 2 -21 -2 -32 -10 -17 -13 -16 -14 10 -10 15 3 25 1 22 -5 -4 -5
-13 -9 -22 -9 -8 0 -228 214 -489 475 -261 261 -478 475 -483 475 -4 0 -17 13
-29 29 l-21 29 35 -1 c19 -1 34 -5 34 -11z m995 -56 c-3 -6 1 -20 10 -32 l17
-23 -7 22 c-5 18 -3 22 9 17 9 -3 13 -10 10 -15 -3 -6 0 -16 6 -24 7 -8 10
-25 6 -38 -3 -13 -3 -27 1 -31 4 -3 7 -15 8 -26 1 -15 -4 -19 -24 -18 -14 2
-30 7 -36 13 -5 5 -11 53 -12 105 -1 65 2 89 8 77 6 -9 7 -22 4 -27z m917 26
c6 4 5 -2 -1 -15 -15 -27 -16 -27 -17 7 -1 15 1 21 3 14 3 -6 9 -9 15 -6z
m-1448 -38 c3 -16 3 -41 0 -54 -4 -13 -1 -30 5 -38 12 -14 9 -71 -4 -84 -4 -4
-5 10 -2 30 3 21 1 40 -4 43 -5 4 -9 -2 -9 -11 0 -14 -3 -15 -12 -6 -6 6 -12
42 -13 80 -2 58 0 68 15 69 12 1 20 -8 24 -29z m566 17 c11 -13 10 -14 -4 -9
-9 3 -16 10 -16 15 0 13 6 11 20 -6z m246 6 c-12 -5 -20 -19 -22 -40 -3 -28
-2 -32 10 -22 11 10 14 7 12 -12 -1 -16 -8 -24 -23 -25 -16 -1 -21 2 -17 13 4
9 0 15 -10 15 -9 0 -16 5 -16 10 0 6 7 10 15 10 9 0 15 9 15 22 0 21 -1 21
-13 4 -12 -16 -14 -16 -14 -2 0 9 4 16 9 16 5 0 7 3 5 8 -3 4 11 8 32 9 24 1
30 -1 17 -6z m552 -44 c-2 -27 -48 -38 -48 -12 0 8 5 15 11 15 5 0 7 -6 3 -12
-5 -9 -2 -9 9 1 18 15 23 26 7 16 -5 -3 -10 -1 -10 4 0 6 7 11 15 11 9 0 14
-8 13 -23z m-612 -91 c1 -42 -2 -51 -12 -42 -7 7 -9 15 -3 22 5 6 7 19 3 28
-5 14 0 46 8 46 2 0 3 -24 4 -54z m240 -23 c1 -40 -1 -52 -8 -39 -5 9 -13 14
-19 11 -5 -4 -9 3 -9 14 0 11 5 23 11 26 6 4 8 13 5 20 -5 13 2 25 13 25 3 0
7 -26 7 -57z m292 34 c-2 -27 -48 -38 -48 -12 0 8 5 15 11 15 5 0 7 -6 3 -12
-5 -9 -2 -9 9 1 18 15 23 26 7 16 -5 -3 -10 -1 -10 4 0 6 7 11 15 11 9 0 14
-8 13 -23z m-433 -34 c-3 -14 -2 -22 3 -19 5 3 9 -9 9 -27 -1 -18 2 -37 5 -43
4 -5 -2 -10 -13 -10 -22 0 -24 9 -8 38 8 15 8 19 0 14 -8 -5 -11 7 -9 38 0 25
5 43 10 40 5 -4 7 -17 3 -31z m-417 -18 c1 -51 -12 -55 -16 -5 -2 28 3 50 12
50 2 0 4 -20 4 -45z m-448 -12 c0 -5 10 -17 23 -28 21 -18 21 -20 3 -23 -10
-2 -22 2 -27 10 -6 9 -9 7 -9 -9 0 -34 -15 -28 -17 7 -2 21 1 28 9 24 8 -5 9
-2 5 9 -23 56 -22 53 -4 35 9 -9 17 -20 17 -25z m766 -42 c1 -21 -4 -27 -20
-29 -15 -1 -17 1 -7 7 9 6 11 18 6 41 -6 27 -5 31 6 20 8 -7 14 -25 15 -39z
m236 -13 c-6 -24 -42 -24 -42 0 0 10 5 23 11 29 16 16 38 -5 31 -29z m-697 12
c3 -5 1 -10 -4 -10 -6 0 -11 5 -11 10 0 6 2 10 4 10 3 0 8 -4 11 -10z m-180
-19 c-3 -6 -14 -10 -23 -10 -15 1 -15 2 1 6 9 2 17 9 17 15 0 6 3 9 6 5 3 -3
3 -10 -1 -16z m325 4 c0 -8 -2 -15 -4 -15 -2 0 -6 7 -10 15 -3 8 -1 15 4 15 6
0 10 -7 10 -15z m-73 -11 c-3 -3 -12 -4 -19 -1 -8 3 -5 6 6 6 11 1 17 -2 13
-5z m310 0 c-3 -3 -12 -4 -19 -1 -8 3 -5 6 6 6 11 1 17 -2 13 -5z m451 -27
c-2 -27 -48 -38 -48 -12 0 8 5 15 11 15 5 0 7 -6 3 -12 -5 -9 -2 -9 9 1 18 15
23 26 7 16 -5 -3 -10 -1 -10 4 0 6 7 11 15 11 9 0 14 -8 13 -23z m-80 -80 c-2
-27 -48 -38 -48 -12 0 8 5 15 11 15 5 0 7 -6 3 -12 -5 -9 -2 -9 9 1 18 15 23
26 7 16 -5 -3 -10 -1 -10 4 0 6 7 11 15 11 9 0 14 -8 13 -23z m-80 -80 c-2
-27 -48 -38 -48 -12 0 8 5 15 11 15 5 0 7 -6 3 -12 -5 -9 -2 -9 9 1 18 15 23
26 7 16 -5 -3 -10 -1 -10 4 0 6 7 11 15 11 9 0 14 -8 13 -23z m-80 -80 c-2
-27 -48 -38 -48 -12 0 8 5 15 11 15 5 0 7 -6 3 -12 -5 -9 -2 -9 9 1 18 15 23
26 7 16 -5 -3 -10 -1 -10 4 0 6 7 11 15 11 9 0 14 -8 13 -23z m1212 3 c0 -6 9
-30 20 -52 11 -23 18 -44 15 -46 -3 -3 -12 12 -21 34 -9 21 -20 47 -25 57 -6
11 -6 17 1 17 5 0 10 -5 10 -10z m50 -5 c0 -8 -2 -15 -4 -15 -2 0 -6 7 -10 15
-3 8 -1 15 4 15 6 0 10 -7 10 -15z m259 -87 c1 -5 -3 -8 -9 -8 -5 0 -10 9 -10
20 0 16 -7 20 -32 21 -18 0 -27 3 -20 6 6 2 10 9 6 14 -3 5 0 9 5 9 6 0 11 10
12 23 0 16 7 8 24 -28 13 -27 24 -53 24 -57z m176 59 c1 -19 5 -41 10 -49 6
-7 -2 0 -17 17 -23 26 -27 28 -33 13 -4 -10 -5 -25 -1 -33 3 -8 1 -15 -4 -15
-6 0 -10 24 -10 54 0 54 1 55 28 52 24 -3 27 -8 27 -39z m163 18 c7 -14 12
-28 12 -31 0 -10 -26 21 -33 39 -10 27 8 20 21 -8z m87 -30 c0 -30 -3 -55 -7
-55 -5 0 -8 25 -8 55 0 30 3 55 8 55 4 0 7 -25 7 -55z m165 15 c0 -22 -2 -40
-4 -40 -2 0 -6 18 -8 40 -2 22 0 40 4 40 5 0 8 -18 8 -40z m162 -15 c0 -26 -3
-49 -6 -52 -3 -4 -6 20 -6 52 0 32 3 56 6 53 3 -4 6 -27 6 -53z m458 11 c0 -6
-7 -2 -15 8 -8 11 -15 25 -15 30 0 6 7 2 15 -8 8 -11 15 -25 15 -30z m79 -13
l-2 -58 -7 50 c-7 47 -5 65 6 65 2 0 3 -26 3 -57z m133 32 c-4 -21 0 -25 19
-26 23 -2 23 -2 2 -6 -14 -3 -23 -13 -26 -31 -2 -15 -5 -1 -6 31 0 31 3 57 8
57 4 0 6 -11 3 -25z m192 -11 c9 -20 15 -39 12 -41 -2 -2 -7 5 -11 16 -3 12
-10 21 -15 21 -4 0 -10 9 -13 20 -8 33 8 23 27 -16z m78 -4 c-2 -22 -6 -40 -8
-40 -2 0 -4 18 -4 40 0 22 3 40 8 40 4 0 6 -18 4 -40z m227 -19 l-2 -26 -4 25
c-3 14 -12 34 -21 45 -17 20 -17 20 6 1 13 -12 21 -29 21 -45z m123 -8 c2 -24
0 -43 -4 -43 -5 0 -7 26 -7 58 1 61 6 55 11 -15z m198 12 c0 -30 -3 -55 -7
-55 -5 0 -8 25 -8 55 0 30 3 55 8 55 4 0 7 -25 7 -55z m132 30 c-4 -21 0 -25
19 -26 23 -2 23 -2 2 -6 -14 -3 -23 -13 -26 -31 -2 -15 -5 -1 -6 31 0 31 3 57
8 57 4 0 6 -11 3 -25z m1029 -25 c15 -28 23 -50 19 -50 -4 0 -14 15 -21 33
l-14 32 -6 -40 c-5 -39 -5 -38 -10 18 -2 31 -2 57 1 57 3 0 17 -23 31 -50z
m72 30 c-3 -12 -8 -19 -11 -16 -5 6 5 36 12 36 2 0 2 -9 -1 -20z m137 -5 c0
-19 6 -25 23 -26 l22 -2 -22 -4 c-16 -3 -23 -11 -23 -29 0 -13 -3 -24 -7 -24
-5 0 -8 25 -8 55 0 30 3 55 8 55 4 0 7 -11 7 -25z m438 2 c2 -9 -1 -17 -7 -17
-16 0 -13 -21 6 -42 9 -10 14 -21 11 -24 -4 -3 -14 8 -24 25 -23 39 -34 39
-34 1 0 -16 -3 -30 -7 -30 -5 0 -8 24 -8 54 0 53 0 53 30 52 19 -1 31 -8 33
-19z m164 -32 c-5 -71 -17 -71 -17 0 0 30 5 55 10 55 6 0 9 -23 7 -55z m-1641
6 c16 -5 29 -15 29 -20 0 -6 -16 -1 -35 10 -19 12 -34 28 -34 37 1 16 2 16 6
0 2 -9 17 -21 34 -27z m379 19 c-8 -16 -7 -28 4 -51 13 -26 13 -29 1 -19 -21
18 -28 47 -15 70 6 11 13 20 16 20 2 0 0 -9 -6 -20z m918 -5 c-3 -3 -9 2 -12
12 -6 14 -5 15 5 6 7 -7 10 -15 7 -18z m-4088 -73 c-1 -14 -40 43 -40 58 0 8
9 0 20 -18 11 -18 20 -36 20 -40z m2052 11 c15 -18 3 -16 -16 3 -9 8 -16 25
-15 37 0 21 1 21 10 -2 5 -14 15 -31 21 -38z m1947 4 c1 -5 -3 -5 -9 -2 -5 3
-10 16 -9 28 0 21 1 21 9 2 5 -11 9 -24 9 -28z m-2592 -4 c-3 -10 -5 -4 -5 12
0 17 2 24 5 18 2 -7 2 -21 0 -30z m47 -3 c-6 -5 -24 21 -24 34 0 6 6 1 14 -10
8 -10 12 -21 10 -24z m861 13 l18 -28 -21 19 c-12 11 -22 23 -22 28 0 14 7 9
25 -19z m1382 -10 c-3 -10 -5 -4 -5 12 0 17 2 24 5 18 2 -7 2 -21 0 -30z
m-5079 4 c-2 -27 -48 -38 -48 -12 0 8 5 15 11 15 5 0 7 -6 3 -12 -5 -9 -2 -9
9 1 18 15 23 26 7 16 -5 -3 -10 -1 -10 4 0 6 7 11 15 11 9 0 14 -8 13 -23z
m4147 -7 c3 -5 1 -10 -4 -10 -6 0 -11 5 -11 10 0 6 2 10 4 10 3 0 8 -4 11 -10z
m175 -15 c0 -8 -2 -15 -4 -15 -2 0 -6 7 -10 15 -3 8 -1 15 4 15 6 0 10 -7 10
-15z m-4402 -58 c-2 -27 -48 -38 -48 -12 0 8 5 15 11 15 5 0 7 -6 3 -12 -5 -9
-2 -9 9 1 18 15 23 26 7 16 -5 -3 -10 -1 -10 4 0 6 7 11 15 11 9 0 14 -8 13
-23z m-80 -80 c-2 -27 -48 -38 -48 -12 0 8 5 15 11 15 5 0 7 -6 3 -12 -5 -9
-2 -9 9 1 18 15 23 26 7 16 -5 -3 -10 -1 -10 4 0 6 7 11 15 11 9 0 14 -8 13
-23z m-80 -80 c-2 -27 -48 -38 -48 -12 0 8 5 15 11 15 5 0 7 -6 3 -12 -5 -9
-2 -9 9 1 18 15 23 26 7 16 -5 -3 -10 -1 -10 4 0 6 7 11 15 11 9 0 14 -8 13
-23z"/>
<path d="M926 5013 c-7 -16 13 -38 24 -26 3 3 -1 8 -8 10 -10 4 -10 8 -1 19 7
8 7 14 1 14 -5 0 -13 -8 -16 -17z"/>
<path d="M1886 5013 c-7 -16 13 -38 24 -26 3 3 -1 8 -8 10 -10 4 -10 8 -1 19
7 8 7 14 1 14 -5 0 -13 -8 -16 -17z"/>
<path d="M1813 4987 c0 -8 6 -14 13 -14 7 0 10 6 7 14 -3 7 -8 13 -12 13 -4 0
-8 -6 -8 -13z"/>
<path d="M2439 4791 c7 -12 19 -25 27 -28 26 -10 22 1 -9 26 -29 24 -30 24
-18 2z"/>
<path d="M2521 4673 c-1 -17 16 -25 25 -12 4 7 3 9 -4 5 -5 -3 -13 0 -15 6 -4
9 -6 10 -6 1z"/>
<path d="M555 4838 l-40 -41 43 33 c23 18 42 37 42 42 0 13 -4 10 -45 -34z"/>
<path d="M430 4662 c0 -4 9 -8 20 -8 11 0 20 4 20 8 0 4 -9 8 -20 8 -11 0 -20
-4 -20 -8z"/>
<path d="M2586 4253 c-6 -14 -5 -15 5 -6 7 7 10 15 7 18 -3 3 -9 -2 -12 -12z"/>
<path d="M1240 4530 c0 -5 5 -10 10 -10 6 0 10 5 10 10 0 6 -4 10 -10 10 -5 0
-10 -4 -10 -10z"/>
<path d="M1218 4443 c7 -3 16 -2 19 1 4 3 -2 6 -13 5 -11 0 -14 -3 -6 -6z"/>
<path d="M1670 4540 c0 -4 11 -10 25 -12 14 -3 25 -2 25 2 0 4 -11 10 -25 12
-14 3 -25 2 -25 -2z"/>
<path d="M355 4409 c-4 -6 -4 -13 0 -17 4 -4 10 -1 12 6 3 6 9 10 14 6 5 -3 9
0 9 5 0 14 -27 14 -35 0z"/>
<path d="M994 4269 c-19 -22 -19 -22 4 -8 12 8 22 17 22 21 0 12 -6 9 -26 -13z"/>
<path d="M1166 4151 c-4 -5 -2 -12 3 -15 5 -4 12 -2 15 3 4 5 2 12 -3 15 -5 4
-12 2 -15 -3z"/>
<path d="M1197 4013 c-13 -12 -7 -35 7 -30 7 3 18 1 23 -4 7 -7 12 -3 16 10 3
12 1 19 -4 15 -5 -3 -9 0 -9 5 0 12 -23 15 -33 4z"/>
<path d="M1150 3890 c0 -5 4 -10 10 -10 5 0 7 -6 4 -14 -3 -7 2 -16 10 -19 12
-5 13 -1 4 24 -9 28 -28 40 -28 19z"/>
<path d="M1148 3820 c-7 -24 -3 -38 8 -28 3 4 4 17 2 30 l-3 23 -7 -25z"/>
<path d="M1460 4051 c0 -5 7 -15 17 -22 15 -13 15 -12 4 9 -12 23 -21 28 -21
13z"/>
<path d="M500 3980 c0 -5 5 -10 10 -10 6 0 10 5 10 10 0 6 -4 10 -10 10 -5 0
-10 -4 -10 -10z"/>
<path d="M2319 3833 c-13 -16 -12 -17 4 -4 9 7 17 15 17 17 0 8 -8 3 -21 -13z"/>
<path d="M2234 3748 l-19 -23 23 19 c21 18 27 26 19 26 -2 0 -12 -10 -23 -22z"/>
<path d="M2179 3733 c-7 -10 -9 -15 -5 -11 5 4 14 0 21 -9 8 -11 14 -13 19 -4
4 6 0 14 -8 17 -9 3 -13 10 -10 15 10 16 -3 9 -17 -8z"/>
<path d="M2164 3678 l-19 -23 23 19 c21 18 27 26 19 26 -2 0 -12 -10 -23 -22z"/>
<path d="M2079 3593 c-13 -16 -12 -17 4 -4 9 7 17 15 17 17 0 8 -8 3 -21 -13z"/>
<path d="M1999 3513 c-13 -16 -12 -17 4 -4 16 13 21 21 13 21 -2 0 -10 -8 -17
-17z"/>
<path d="M1919 3433 c-13 -16 -12 -17 4 -4 9 7 17 15 17 17 0 8 -8 3 -21 -13z"/>
<path d="M1839 3353 c-13 -16 -12 -17 4 -4 9 7 17 15 17 17 0 8 -8 3 -21 -13z"/>
<path d="M1759 3273 c-13 -16 -12 -17 4 -4 9 7 17 15 17 17 0 8 -8 3 -21 -13z"/>
<path d="M1679 3193 c-13 -16 -12 -17 4 -4 9 7 17 15 17 17 0 8 -8 3 -21 -13z"/>
<path d="M1599 3113 c-13 -16 -12 -17 4 -4 16 13 21 21 13 21 -2 0 -10 -8 -17
-17z"/>
<path d="M1530 3868 c0 -9 7 -18 15 -22 8 -3 15 -17 15 -31 0 -14 4 -25 8 -25
4 0 8 16 8 37 0 20 -2 31 -4 24 -2 -7 -11 -4 -23 10 -14 17 -19 18 -19 7z"/>
<path d="M975 3900 c-3 -16 -2 -37 4 -47 9 -15 10 -13 5 11 -4 18 -3 27 3 23
6 -4 8 3 5 18 -6 32 -9 31 -17 -5z"/>
<path d="M1960 3710 c0 -5 5 -10 10 -10 6 0 10 5 10 10 0 6 -4 10 -10 10 -5 0
-10 -4 -10 -10z"/>
</g>
</svg>
